# xmcd CD database file
#
# Track frame offsets:
#	150
#	18727
#	35183
#	56017
#	73102
#	89017
#	103931
#	118351
#	136202
#	157355
#	182515
#	198169
#
# Disc length: 2928 seconds
#
# Revision: 0
# Processed by: cddbd v1.5.2PL0 Copyright (c) Steve Scherf et al.
# Submitted via: CDex 1.70beta2
#
DISCID=bc0b6e0c
DTITLE=Andrea Padova - Notes posted on the refrigerator
DYEAR=2007
DGENRE=Jazz
TTITLE0=a song is a song is a song
TTITLE1=notes posted on the refrigerator
TTITLE2=suddenly
TTITLE3=a straight song (to David Lynch)
TTITLE4=walk at sunrise
TTITLE5=dance-machine
TTITLE6=a little nonsong (to E.E.Cummings)
TTITLE7=stream
TTITLE8=a song without a name
TTITLE9=evening song (to Edward Hopper)
TTITLE10=crossing energies
TTITLE11=questioning the night
EXTD=YEAR: 2007
EXTT0=
EXTT1=
EXTT2=
EXTT3=
EXTT4=
EXTT5=
EXTT6=
EXTT7=
EXTT8=
EXTT9=
EXTT10=
EXTT11=
PLAYORDER=
